<?xml version="1.0" encoding="UTF-8" standalone="no"?>
<svg
   xmlns:dc="http://purl.org/dc/elements/1.1/"
   xmlns:cc="http://creativecommons.org/ns#"
   xmlns:rdf="http://www.w3.org/1999/02/22-rdf-syntax-ns#"
   xmlns:svg="http://www.w3.org/2000/svg"
   xmlns="http://www.w3.org/2000/svg"
   viewBox="0 0 268 73"
   id="svg_amperka-logo_ru">
  <g fill-rule="nonzero" fill="none">
    <path d="M28.73 61.54A17.27 17.27 0 1 1 46 44.28c-.011 9.532-7.738 17.254-17.27 17.26zm0-28a10.75 10.75 0 1 0 10.74 10.74c0-5.933-4.807-10.744-10.74-10.75v.01z" fill="#F6871F"></path>
    <path d="M28.73 6.52a5.4 5.4 0 1 1 0 10.8 5.4 5.4 0 0 1 0-10.8zm0-6.52a11.93 11.93 0 1 0 11.92 11.92A11.92 11.92 0 0 0 28.73 0z" fill="#FFF"></path>
    <path d="M26.75 72.89A28.73 28.73 0 0 1 6.24 26.35l-2.11-2.11a3.36 3.36 0 0 1-.32-4.47 3.26 3.26 0 0 1 4.83-.24l4.69 4.69a2.82 2.82 0 0 1 0 4 22.81 22.81 0 0 0-6.77 14.64 22.21 22.21 0 1 0 37.87-14.34l-.3-.3a2.82 2.82 0 0 1 0-4l4.59-4.59a3.35 3.35 0 0 1 4.47-.32 3.27 3.27 0 0 1 .24 4.83l-2.21 2.21a28.73 28.73 0 0 1-24.47 46.54zM93.68 33.16h-.05A1.85 1.85 0 0 0 91.77 35v2a12 12 0 0 0-9.49-4.36c-7.18 0-13 5.82-13 13s5.82 13 13 13a12 12 0 0 0 9.49-4.35v2a1.85 1.85 0 0 0 1.86 1.85h.05a1.85 1.85 0 0 0 1.85-1.85V35a1.85 1.85 0 0 0-1.85-1.84zM82.46 55a9.4 9.4 0 1 1 9.34-9.4 9.27 9.27 0 0 1-9.34 9.4zM266.14 33.16h-.05a1.85 1.85 0 0 0-1.85 1.84v2a12 12 0 0 0-9.49-4.36c-7.18 0-13 5.82-13 13s5.82 13 13 13a12 12 0 0 0 9.49-4.35v2a1.85 1.85 0 0 0 1.85 1.85h.05a1.85 1.85 0 0 0 1.86-1.86V35a1.84 1.84 0 0 0-1.86-1.84zM254.93 55a9.4 9.4 0 1 1 9.33-9.4 9.28 9.28 0 0 1-9.33 9.4zM123.82 33.16H123a2.08 2.08 0 0 0-1.78 1l-7.62 12-7.61-12a2.08 2.08 0 0 0-1.78-1h-.82A1.85 1.85 0 0 0 101.5 35v21.28a1.85 1.85 0 1 0 3.7 0V39.64l7.56 11.94a1 1 0 0 0 1.64 0l7.51-11.85v16.55a1.85 1.85 0 1 0 3.7 0V35a1.85 1.85 0 0 0-1.79-1.84zM151.6 33.16h-18.07a1.85 1.85 0 0 0-1.85 1.84v21.28a1.85 1.85 0 0 0 1.85 1.85 1.85 1.85 0 0 0 1.86-1.85V36.82h14.31v19.46a1.85 1.85 0 0 0 1.85 1.85 1.85 1.85 0 0 0 1.86-1.85V35a1.85 1.85 0 0 0-1.81-1.84zM171.19 32.63c-7.48 0-12.91 5.48-12.91 13s5.51 13 13.1 13a12.75 12.75 0 0 0 10-4.48 1.863 1.863 0 1 0-2.9-2.34 8.76 8.76 0 0 1-7.05 3.19 9 9 0 0 1-9.25-7.5h19.54a1.81 1.81 0 0 0 1.82-1.8 13.75 13.75 0 0 0-3.31-9.09 11.86 11.86 0 0 0-9.04-3.98zm-9 11.25a8.77 8.77 0 0 1 9-7.63c5.07 0 7.84 3.72 8.46 7.63h-17.46zM201 32.63a11.84 11.84 0 0 0-9.49 4.43V35a1.85 1.85 0 0 0-1.85-1.85 1.85 1.85 0 0 0-1.89 1.85v30.73a1.85 1.85 0 1 0 3.7 0v-11.5a11.86 11.86 0 0 0 9.53 4.42c7.18 0 13-5.82 13-13s-5.82-13-13-13v-.02zM200.82 55a9.4 9.4 0 1 1 9.35-9.4 9.28 9.28 0 0 1-9.35 9.4zM231.85 45.18l7.27-9.18a1.75 1.75 0 0 0-1.38-2.85h-.06A2.07 2.07 0 0 0 236 34l-7.17 9.74H222v-8.7a1.85 1.85 0 1 0-3.7 0v21.24a1.85 1.85 0 1 0 3.7 0V47h7l7.6 10.3c.388.522 1 .83 1.65.83a1.76 1.76 0 0 0 1.4-2.84l-7.8-10.11z" fill="#FFF"></path>
  </g>
</svg>