<?xml version="1.0" encoding="UTF-8" standalone="no"?>
<svg
   xmlns:dc="http://purl.org/dc/elements/1.1/"
   xmlns:cc="http://creativecommons.org/ns#"
   xmlns:rdf="http://www.w3.org/1999/02/22-rdf-syntax-ns#"
   xmlns:svg="http://www.w3.org/2000/svg"
   xmlns="http://www.w3.org/2000/svg"
   id="svg43"
   style="clip-rule:evenodd;fill-rule:evenodd;stroke-linejoin:round;stroke-miterlimit:1.41420996"
   xml:space="preserve"
   version="1.1"
   viewBox="0 0 1247.2441 793.70078"
   height="210mm"
   width="330mm"><metadata
   id="metadata49"><rdf:RDF><cc:Work
       rdf:about=""><dc:format>image/svg+xml</dc:format><dc:type
         rdf:resource="http://purl.org/dc/dcmitype/StillImage" /><dc:title></dc:title></cc:Work></rdf:RDF></metadata><defs
   id="defs47">
        
        
        
        
        
        
        
        
        
        
    
            
        </defs>
    
<g
   transform="translate(0,-718.11023)"
   id="layer2" /><g
   transform="translate(0,-718.11023)"
   id="layer3"><g
     transform="translate(-1.6949153,5.0847458)"
     id="g1166"><g
       style="clip-rule:evenodd;fill-rule:evenodd;stroke-linejoin:round;stroke-miterlimit:1.41420996"
       id="g4"
       transform="translate(692.75064,1430.5064)">
            <path
   id="path2"
   style="fill:#a52b00;fill-rule:nonzero"
   d="m 0,-322.648 c -114.597,0 -218.172,13.779 -296.172,36.229 v -5.071 c -78,25.095 -127.681,59.959 -127.681,98.506 0,6.077 1.345,12.062 3.703,17.931 l -7.984,14.321 c 0,0 -6.413,8.359 4.935,25.999 10.01,15.554 60.164,76.438 86.628,108.32 11.367,16.348 19.083,26.413 19.757,25.44 1.061,-1.543 -7.064,-32.229 -29.639,-67.242 -10.533,-18.805 -23.358,-43.719 -30.908,-62.12 21.081,13.342 49.189,25.445 81.189,35.861 v -0.159 c 78,22.453 181.575,36.229 296.172,36.229 131.156,0 248.828,-18.046 327.828,-46.491 V -276.153 C 248.828,-304.6 131.156,-322.648 0,-322.648" />
        </g><g
       style="clip-rule:evenodd;fill-rule:evenodd;stroke-linejoin:round;stroke-miterlimit:1.41420996"
       id="g8"
       transform="translate(1138.4486,1317.0874)">
            <path
   id="path6"
   style="fill:#a52b00;fill-rule:nonzero"
   d="m 0,-50.399 -13.433,-27.828 c 0.071,-1.056 0.124,-2.114 0.124,-3.175 0,-31.548 -32.805,-60.62 -87.997,-83.901 V 2.499 c 25.751,-10.864 46.645,-22.984 61.586,-36.037 -4.398,17.683 -19.437,53.455 -31.428,78.611 -19.707,35.981 -26.845,67.303 -25.929,68.853 0.584,0.978 7.307,-9.393 17.222,-26.2 C -56.783,54.85 -13.063,-7.914 -4.325,-23.901 5.574,-42.024 0,-50.399 0,-50.399" />
        </g><g
       style="clip-rule:evenodd;fill-rule:evenodd;stroke-linejoin:round;stroke-miterlimit:1.41420996"
       id="g12"
       transform="translate(1216.4486,1039.3575)">
            <path
   id="path10"
   style="fill:#f74c00;fill-rule:nonzero"
   d="m 0,227.175 -88.296,-65.043 c -0.83,-2.895 -1.66,-5.787 -2.516,-8.658 l 29.002,-42.016 c 2.961,-4.274 3.558,-9.829 1.635,-14.703 -1.925,-4.85 -6.136,-8.327 -11.117,-9.179 l -49.043,-8.321 c -1.898,-3.879 -3.89,-7.698 -5.889,-11.484 l 20.604,-47.172 c 2.119,-4.806 1.673,-10.39 -1.139,-14.751 -2.797,-4.383 -7.551,-6.942 -12.617,-6.743 l -49.77,1.809 c -2.577,-3.356 -5.194,-6.68 -7.866,-9.946 l 11.438,-50.56 c 1.159,-5.132 -0.302,-10.508 -3.879,-14.238 -3.555,-3.716 -8.722,-5.254 -13.636,-4.05 l -48.478,11.919 c -3.14,-2.775 -6.33,-5.513 -9.559,-8.196 l 1.745,-51.907 c 0.188,-5.254 -2.262,-10.247 -6.468,-13.163 -4.204,-2.934 -9.54,-3.376 -14.138,-1.196 l -45.226,21.502 c -3.64,-2.09 -7.302,-4.16 -11.005,-6.163 l -7.991,-51.148 c -0.812,-5.181 -4.146,-9.584 -8.815,-11.594 -4.655,-2.022 -9.99,-1.367 -14.077,1.71 l -40.321,30.253 c -3.97,-1.318 -7.958,-2.583 -11.996,-3.792 l -17.38,-48.504 c -1.766,-4.945 -5.842,-8.576 -10.81,-9.597 -4.953,-1.012 -10.048,0.703 -13.483,4.539 l -33.938,37.971 c -4.104,-0.471 -8.21,-0.901 -12.327,-1.259 l -26.208,-44.154 c -2.656,-4.472 -7.344,-7.193 -12.397,-7.193 -5.041,0 -9.739,2.721 -12.372,7.193 l -26.214,44.154 c -4.119,0.358 -8.244,0.788 -12.341,1.259 l -33.943,-37.971 c -3.437,-3.836 -8.551,-5.551 -13.487,-4.539 -4.966,1.035 -9.045,4.652 -10.806,9.597 l -17.393,48.504 c -4.027,1.209 -8.017,2.482 -11.997,3.792 l -40.308,-30.253 c -4.098,-3.088 -9.432,-3.741 -14.098,-1.71 -4.65,2.01 -7.997,6.413 -8.803,11.594 l -7.997,51.148 c -3.7,2.003 -7.363,4.062 -11.014,6.163 l -45.222,-21.502 c -4.592,-2.189 -9.952,-1.738 -14.135,1.196 -4.201,2.916 -6.656,7.909 -6.466,13.163 l 1.736,51.907 c -3.219,2.683 -6.403,5.421 -9.558,8.196 l -48.47,-11.919 c -4.925,-1.195 -10.086,0.334 -13.65,4.05 -3.585,3.73 -5.039,9.106 -3.885,14.238 l 11.415,50.56 c -2.649,3.279 -5.27,6.59 -7.839,9.946 l -49.771,-1.809 c -5.023,-0.148 -9.817,2.36 -12.623,6.743 -2.812,4.361 -3.237,9.945 -1.146,14.751 l 20.619,47.172 c -2.003,3.786 -3.992,7.605 -5.906,11.484 l -49.04,8.321 c -4.982,0.841 -9.183,4.316 -11.12,9.179 -1.925,4.874 -1.3,10.429 1.639,14.703 l 29.01,42.016 c -0.224,0.741 -0.43,1.49 -0.653,2.233 l -82.021,87.122 c 0,0 -12.56,9.851 5.73,33.002 16.14,20.421 98.993,101.376 142.752,143.789 18.483,21.532 31.143,34.866 32.466,33.712 2.088,-1.832 -8.871,-41.006 -45.275,-86.97 -28.06,-41.239 -64.478,-104.666 -55.939,-111.977 0,0 9.714,-12.331 29.204,-21.207 0.713,0.571 -0.737,-0.565 0,0 0,0 411.314,189.736 792.846,3.21 43.584,-7.817 69.968,15.529 69.968,15.529 9.099,5.276 -14.463,70.495 -33.838,113.666 -26.353,49.023 -30.217,87.276 -27.982,88.602 1.409,0.842 10.998,-13.747 24.674,-36.966 C -75.469,370.196 -11.675,280.554 0,258.781 13.239,234.094 0,227.175 0,227.175" />
        </g><g
       style="clip-rule:evenodd;fill-rule:evenodd;stroke-linejoin:round;stroke-miterlimit:1.41420996"
       id="g16"
       transform="translate(834.43464,1227.0844)">
            <path
   id="path14"
   style="fill-rule:nonzero"
   d="m 0,159.631 c 1.575,-1.342 2.4,-2.139 2.4,-2.139 L -132.25,144.985 C -22.348,0 65.618,116.967 74.988,129.879 v 29.752 z" />
        </g><g
       id="g1114"><path
         id="path18"
         style="clip-rule:evenodd;fill:#f74c00;fill-rule:nonzero;stroke-linejoin:round;stroke-miterlimit:1.41420996"
         d="m 316.99664,1226.9784 c 0,0 -111.096,-43.25 -129.876,-89.798 0,0 130.391,-103.7169 -25.621,-213.88595 l -4.229,140.41695 c 0,0 -46.226,-44.5939 -44.186,-122.68295 0,0 -143.773,69.17805 24.476,191.57695 0,0 5.676,65.698 156.977,145.017 z" /></g><g
       style="clip-rule:evenodd;fill-rule:evenodd;stroke-linejoin:round;stroke-miterlimit:1.41420996"
       id="g24"
       transform="translate(768.52664,1254.6704)">
            <path
   id="path22"
   style="fill-rule:nonzero"
   d="m 0,-87.016 c 0,0 41.104,-45.009 82.21,0 0,0 32.297,60.013 0,90.016 0,0 -52.85,42.009 -82.21,0 0,0 -35.232,-33.006 0,-90.016" />
        </g><g
       style="clip-rule:evenodd;fill-rule:evenodd;stroke-linejoin:round;stroke-miterlimit:1.41420996"
       id="g28"
       transform="translate(816.11464,1184.3434)">
            <path
   id="path26"
   style="fill:#ffffff;fill-rule:nonzero"
   d="m 0,0.008 c 0,17.523 -10.329,31.73 -23.07,31.73 -12.739,0 -23.069,-14.207 -23.069,-31.73 0,-17.529 10.33,-31.738 23.069,-31.738 12.741,0 23.07,14.209 23.07,31.738" />
        </g><g
       style="clip-rule:evenodd;fill-rule:evenodd;stroke-linejoin:round;stroke-miterlimit:1.41420996"
       id="g32"
       transform="translate(585.06864,1248.4104)">
            <path
   id="path30"
   style="fill-rule:nonzero"
   d="m 0,-93.046 c 0,0 70.508,-31.219 89.753,38.463 0,0 20.159,81.218 -57.902,85.802 0,0 -99.541,-19.172 -31.851,-124.265" />
        </g><g
       style="clip-rule:evenodd;fill-rule:evenodd;stroke-linejoin:round;stroke-miterlimit:1.41420996"
       id="g36"
       transform="translate(620.48164,1185.4984)">
            <path
   id="path34"
   style="fill:#ffffff;fill-rule:nonzero"
   d="m 0,0.002 c 0,18.072 -10.653,32.729 -23.794,32.729 -13.137,0 -23.792,-14.657 -23.792,-32.729 0,-18.078 10.655,-32.731 23.792,-32.731 C -10.653,-32.729 0,-18.076 0,0.002" />
        </g><g
       style="clip-rule:evenodd;fill-rule:evenodd;stroke-linejoin:round;stroke-miterlimit:1.41420996"
       id="g40"
       transform="translate(1040.8086,1540.8264)">
            <path
   id="path38"
   style="fill:#f74c00;fill-rule:nonzero"
   d="m 0,-296.808 c 0,0 -14.723,58.643 -106.292,120.267 l -25.678,6.018 c 0,0 -83.066,-151.481 -200.749,19.221 0,0 36.677,-21.354 135,4.65 0,0 -45.23,69.226 -136.342,67.099 0,0 87.313,104.749 220.18,-46.554 0,0 140.455,-54.315 151.845,-170.701 z" />
        </g><g
       id="g1111"><path
         id="path2-1"
         d="m 188.62713,950.02326 a 39.906078,38.539025 0 0 1 -2.83824,-51.55718 l 0.29174,-0.34836 93.23781,90.04379 -0.36071,0.28174 a 39.916255,38.548853 0 0 1 -53.39167,-2.74647 z"
         style="clip-rule:evenodd;fill-rule:evenodd;stroke-width:1.11123502;stroke-linejoin:round;stroke-miterlimit:1.41420996" /><path
         id="path4"
         d="m 316.42494,839.03177 -87.74188,84.73613 23.10187,22.31048 87.74188,-84.73613 z"
         style="clip-rule:evenodd;fill-rule:evenodd;stroke-width:1.11106718;stroke-linejoin:round;stroke-miterlimit:1.41420996" /><path
         id="path6-2"
         d="m 423.58574,749.20885 3.80052,13.76511 -86.87496,83.8989 -9.02695,-8.71772 z"
         style="clip-rule:evenodd;fill-rule:evenodd;stroke-width:1.11123502;stroke-linejoin:round;stroke-miterlimit:1.41420996" /><path
         id="path8"
         d="m 72.427855,1127.8339 -18.008677,17.3929 a 21.903203,21.15287 0 1 1 -30.97524,-29.9152 l 18.008677,-17.3918 a 52.042655,50.259842 0 0 0 30.97524,29.9141 z"
         style="clip-rule:evenodd;fill-rule:evenodd;stroke-width:1.11123502;stroke-linejoin:round;stroke-miterlimit:1.41420996" /><path
         id="path12"
         d="m 61.518166,1108.4569 c -15.948933,-15.4394 -15.948933,-40.4325 0,-55.8719 L 171.70738,946.17056 c 2.37574,4.25724 5.38211,8.15686 8.92406,11.57557 l 36.94345,35.6779 c 3.54006,3.42084 7.57798,6.32458 11.98619,8.61947 L 119.37073,1108.459 c -15.98638,15.403 -41.866185,15.403 -57.852564,0 z"
         style="clip-rule:evenodd;fill-rule:evenodd;stroke-width:1.11123502;stroke-linejoin:round;stroke-miterlimit:1.41420996" /></g><path
       d="m 316.99668,1226.9784 c 0,0 -111.096,-43.25 -129.876,-89.798 0,0 130.391,-103.717 -25.62104,-213.88598 l -4.229,140.41698 c -12.20909,39.8341 2.71307,-9.1547 -19.71,68.894 0,0 5.676,65.698 156.97704,145.017 z"
       style="clip-rule:evenodd;fill:#f74c00;fill-rule:nonzero;stroke-linejoin:round;stroke-miterlimit:1.41420996"
       id="path18-9" /></g></g><g
   transform="translate(0,-718.11023)"
   id="layer1" /></svg>